<svg xmlns="http://www.w3.org/2000/svg" version="1.1" xmlns:xlink="http://www.w3.org/1999/xlink" xmlns:svgjs="http://svgjs.dev/svgjs" width="128" height="128" viewBox="0 0 128 128">
  <g transform="matrix(0.8046875,0,0,0.8046875,12.612792253521128,12.612792253521128)">
    <svg viewBox="0 0 142 142" data-background-color="#ff908b" preserveAspectRatio="xMidYMid meet" height="128" width="128" xmlns="http://www.w3.org/2000/svg" xmlns:xlink="http://www.w3.org/1999/xlink">
      <g id="tight-bounds" transform="matrix(1,0,0,1,-0.15550000000000352,-0.15550000000000352)">
        <svg viewBox="0 0 142.31066447748242 142.31066447748242" height="142.31066447748242" width="142.31066447748242">
          <g>
            <svg></svg>
          </g>
          <g>
            <svg viewBox="0 0 142.31066447748242 142.31066447748242" height="142.31066447748242" width="142.31066447748242">
              <g>
                <path d="M0 71.155c0-39.298 31.857-71.155 71.155-71.155 39.298 0 71.155 31.857 71.156 71.155 0 39.298-31.857 71.155-71.156 71.156-39.298 0-71.155-31.857-71.155-71.156zM71.155 135.173c35.356 0 64.018-28.662 64.018-64.018 0-35.356-28.662-64.018-64.018-64.018-35.356 0-64.018 28.662-64.018 64.018 0 35.356 28.662 64.018 64.018 64.018z" data-fill-palette-color="tertiary" fill="#ffffff" stroke="transparent"></path>
                <ellipse rx="68.30911894919156" ry="68.30911894919156" cx="71.15533223874121" cy="71.15533223874121" fill="#ffffff" stroke="transparent" stroke-width="0" fill-opacity="1" data-fill-palette-color="tertiary"></ellipse>
              </g>
              <g transform="matrix(1,0,0,1,29.989108276746492,31.58299411773161)">
                <svg viewBox="0 0 82.33244792398943 79.1446762420192" height="79.1446762420192" width="82.33244792398943">
                  <g>
                    <svg viewBox="0 0 82.33244792398943 79.1446762420192" height="79.1446762420192" width="82.33244792398943">
                      <g id="textblocktransform">
                        <svg viewBox="0 0 82.33244792398943 79.1446762420192" height="79.1446762420192" width="82.33244792398943" id="textblock">
                          <g>
                            <svg viewBox="0 0 82.33244792398943 79.1446762420192" height="79.1446762420192" width="82.33244792398943">
                              <g transform="matrix(1,0,0,1,0,0)">
                                <!-- Path for letter "L" -->
                                <path d="M20 10 L20 70 L60 70 L60 60 L30 60 L30 10 Z" fill="#ff908b" class="undefined-text-0" data-fill-palette-color="quaternary" id="text-0"></path>
                              </g>
                            </svg>
                          </g>
                        </svg>
                      </g>
                    </svg>
                  </g>
                </svg>
              </g>
              <g></g>
            </svg>
          </g>
        </svg>
      </g>
    </svg>
  </g>
</svg>
